HIERARCHY
ROOT Pelvis
{
	OFFSET 0.000000 0.000000 0.000000
	CHANNELS 6 Xposition Yposition Zposition Xrotation Yrotation Zrotation
	JOINT LeftUpLeg_virtual
	{
		OFFSET 0.000000 0.000000 0.000000
		CHANNELS 3 Xrotation Yrotation Zrotation
		JOINT LeftUpLeg
		{
			OFFSET 18.735201 -5.666702 -4.541200
			CHANNELS 3 Xrotation Yrotation Zrotation
			JOINT LeftLeg
			{
				OFFSET -0.021200 -31.938179 0.493100
				CHANNELS 3 Xrotation Yrotation Zrotation
				JOINT LeftFoot
				{
					OFFSET 0.021200 -31.938179 -4.336299
					CHANNELS 3 Xrotation Yrotation Zrotation
					JOINT LeftToeBase
					{
						OFFSET 0.943001 -26.722000 15.023500
						CHANNELS 3 Xrotation Yrotation Zrotation
						End Site
						{
							OFFSET 0 0 0
						}
					}
				}
			}
		}
	}
	JOINT RightUpLeg_virtual
	{
		OFFSET 0.000000 0.000000 0.000000
		CHANNELS 3 Xrotation Yrotation Zrotation
		JOINT RightUpLeg
		{
			OFFSET -18.735201 -5.666702 -4.541200
			CHANNELS 3 Xrotation Yrotation Zrotation
			JOINT RightLeg
			{
				OFFSET 0.018946 -31.938133 0.493100
				CHANNELS 3 Xrotation Yrotation Zrotation
				JOINT RightFoot
				{
					OFFSET -0.018946 -31.938126 -4.336299
					CHANNELS 3 Xrotation Yrotation Zrotation
					JOINT RightToeBase
					{
						OFFSET -0.943001 -26.722004 15.023500
						CHANNELS 3 Xrotation Yrotation Zrotation
						End Site
						{
							OFFSET 0 0 0
						}
					}
				}
			}
		}
	}
	JOINT Hips_virtual
	{
		OFFSET 0.000000 0.000000 0.000000
		CHANNELS 3 Xrotation Yrotation Zrotation
		JOINT Hips
		{
			OFFSET -0.000000 -0.000000 -0.000000
			CHANNELS 3 Xrotation Yrotation Zrotation
			JOINT Spine
			{
				OFFSET 0.000000 10.199997 -0.299500
				CHANNELS 3 Xrotation Yrotation Zrotation
				JOINT Spine1
				{
					OFFSET 0.000000 11.900002 -1.516600
					CHANNELS 3 Xrotation Yrotation Zrotation
					JOINT Spine2
					{
						OFFSET 0.000000 13.600006 -2.842500
						CHANNELS 3 Xrotation Yrotation Zrotation
						JOINT Neck_virtual
						{
							OFFSET 0.000000 0.000000 0.000000
							CHANNELS 3 Xrotation Yrotation Zrotation
							JOINT Neck
							{
								OFFSET 0.000000 9.624100 -2.890100
								CHANNELS 3 Xrotation Yrotation Zrotation
								JOINT Head
								{
									OFFSET 0.000000 14.068802 -1.351900
									CHANNELS 3 Xrotation Yrotation Zrotation
									End Site
									{
										OFFSET 0 0 0
									}
								}
							}
						}
						JOINT LeftShoulder_virtual
						{
							OFFSET 0.000000 0.000000 0.000000
							CHANNELS 3 Xrotation Yrotation Zrotation
							JOINT LeftShoulder
							{
								OFFSET 15.263000 10.923401 -0.547700
								CHANNELS 3 Xrotation Yrotation Zrotation
								JOINT LeftArm
								{
									OFFSET 25.438599 -2.830597 -13.032500
									CHANNELS 3 Xrotation Yrotation Zrotation
									JOINT LeftForeArm
									{
										OFFSET 29.960503 0.000000 0.000000
										CHANNELS 3 Xrotation Yrotation Zrotation
										JOINT LeftHand
										{
											OFFSET 27.849251 0.000000 0.000000
											CHANNELS 3 Xrotation Yrotation Zrotation
											End Site
											{
												OFFSET 0 0 0
											}
										}
									}
								}
							}
						}
						JOINT RightShoulder_virtual
						{
							OFFSET 0.000000 0.000000 0.000000
							CHANNELS 3 Xrotation Yrotation Zrotation
							JOINT RightShoulder
							{
								OFFSET -15.263000 10.923401 -0.547700
								CHANNELS 3 Xrotation Yrotation Zrotation
								JOINT RightArm
								{
									OFFSET -25.438599 -2.830597 -13.032500
									CHANNELS 3 Xrotation Yrotation Zrotation
									JOINT RightForeArm
									{
										OFFSET -29.960503 0.000000 0.000000
										CHANNELS 3 Xrotation Yrotation Zrotation
										JOINT RightHand
										{
											OFFSET -27.849251 0.000000 0.000000
											CHANNELS 3 Xrotation Yrotation Zrotation
											End Site
											{
												OFFSET 0 0 0
											}
										}
									}
								}
							}
						}
					}
				}
			}
		}
	}
}
MOTION
Frames: 5
Frame Time: 0.03333333
-71.204285 22.700287 5.875320 0.000000 0.000000 0.000000 -59.275660 9.165894 98.595871 -34.536114 25.798446 3.840040 64.799330 -3.905955 -7.748172 -22.132374 -11.258711 3.500518 0.000000 0.000000 0.000000 -59.275660 9.165894 98.595871 -63.945788 -7.621053 -34.354339 119.088446 3.859606 6.696653 7.444049 10.751371 27.522792 0.000000 0.000000 0.000000 -59.275660 9.165894 98.595871 -0.000001 -0.000001 0.000001 13.670502 -0.288286 -5.963911 16.440305 0.246666 -3.275168 0.000000 0.000000 0.000000 16.425633 0.382585 -3.359047 10.960304 2.494064 -2.543663 0.000000 0.000000 0.000000 16.425633 0.382585 -3.359047 5.814968 1.516418 -4.688141 -74.915257 -6.740966 -27.974754 58.640815 -0.227362 0.365224 0.000000 0.000000 0.000000 16.425633 0.382585 -3.359047 4.350987 9.519744 -3.915175 -1.908439 -4.831187 1.339514 32.754630 33.258746 -23.829340 0.000000 0.000000 0.000000 
-73.875221 20.025841 6.191868 0.000000 0.000000 0.000000 -58.753123 3.785923 100.789222 -30.985163 21.750847 2.426573 66.066152 1.868424 -7.499248 -27.760718 -9.054589 1.783507 0.000000 0.000000 0.000000 -58.753123 3.785923 100.789222 -63.120859 -8.555433 -33.020628 122.146568 -1.905295 4.794611 -2.239860 7.556688 25.334034 0.000000 0.000000 0.000000 -58.753123 3.785923 100.789222 0.000000 0.000001 -0.000001 15.958928 -0.842099 -4.962145 15.237945 -0.553108 -2.719566 0.000000 0.000000 0.000000 15.233181 -0.442756 -2.765200 11.746278 2.031668 -2.645384 0.000000 0.000000 0.000000 15.233181 -0.442756 -2.765200 5.850631 3.867359 -9.147233 -79.175471 -4.790791 -29.369619 66.580759 -0.196855 0.415288 0.000000 0.000000 0.000000 15.233181 -0.442756 -2.765200 3.987318 5.771297 -5.369518 0.856463 3.213922 0.708513 26.740056 31.874936 -18.503117 0.000000 0.000000 0.000000 
-75.635353 18.504692 6.497002 0.000000 0.000000 0.000000 -58.027853 -0.902029 102.553344 -24.769205 16.335973 1.579411 64.913653 10.092084 -8.178086 -33.728693 -3.921881 -6.525571 0.000000 0.000000 0.000000 -58.027853 -0.902029 102.553344 -64.008339 -10.160308 -30.516165 124.938285 -11.042589 2.739208 -9.028475 5.693133 20.022438 0.000000 0.000000 0.000000 -58.027853 -0.902029 102.553344 0.000000 0.000001 0.000000 17.619810 -1.529032 -3.675552 13.624170 -1.732720 -2.465772 0.000000 0.000000 0.000000 13.638203 -1.655713 -2.445537 12.133337 1.661009 -2.667284 0.000000 0.000000 0.000000 13.638203 -1.655713 -2.445537 5.241389 7.707912 -14.772695 -82.451503 -2.394243 -28.832865 71.492136 -0.210151 0.553452 0.000000 0.000000 0.000000 13.638203 -1.655713 -2.445537 4.001947 5.115521 -8.837087 0.941038 11.676214 -0.032725 16.412176 34.300158 -10.963367 0.000000 0.000000 0.000000 
-76.286659 17.647209 6.694721 0.000000 0.000000 0.000000 -57.866319 -4.912572 104.751586 -19.208348 11.648711 -0.105513 64.271042 19.785586 -8.671081 -36.645912 1.843638 -14.448980 0.000000 0.000000 0.000000 -57.866319 -4.912572 104.751586 -64.049744 -10.024214 -30.075218 124.660446 -13.928182 2.041796 -9.688109 4.179435 14.597463 0.000000 0.000000 0.000000 -57.866319 -4.912572 104.751586 -0.000000 0.000003 0.000001 17.585876 -1.599588 -4.079328 12.355792 -1.761860 -1.940300 0.000000 0.000000 0.000000 12.378814 -1.624624 -1.926826 11.962400 1.146019 -2.239568 0.000000 0.000000 0.000000 12.378814 -1.624624 -1.926826 3.701487 9.640402 -19.253671 -85.769759 -1.001405 -27.598646 69.277974 -0.255663 0.574483 0.000000 0.000000 0.000000 12.378814 -1.624624 -1.926826 3.553658 17.233483 -9.962802 5.185768 5.341666 -2.433872 15.662616 31.146421 -9.027841 0.000000 0.000000 0.000000 
-78.124725 17.041092 6.655142 0.000000 0.000000 0.000000 -58.930066 -8.530508 107.360410 -19.772834 9.192152 -1.879399 63.608240 25.025607 -7.532285 -26.734219 2.950141 -11.607731 0.000000 0.000000 0.000000 -58.930066 -8.530508 107.360410 -58.029991 -8.375035 -32.883276 122.464841 -15.205377 2.219414 -11.007111 2.825420 15.928145 0.000000 0.000000 0.000000 -58.930066 -8.530508 107.360410 -0.000000 -0.000001 -0.000001 17.220811 -0.898719 -5.377682 11.398449 -0.584632 -0.043192 0.000000 0.000000 0.000000 11.409025 -0.296430 -0.105067 10.854607 0.311558 -1.860125 0.000000 0.000000 0.000000 11.409025 -0.296430 -0.105067 2.907744 8.859724 -22.825136 -91.371491 5.872683 -27.433303 67.652785 -0.270061 0.721410 0.000000 0.000000 0.000000 11.409025 -0.296430 -0.105067 5.114522 27.130553 -12.631157 5.284853 -4.495289 -1.329833 24.650090 25.912187 -13.127687 0.000000 0.000000 0.000000 
